# xmcd
#
# Track frame offsets: 
#        150
#        10467
#        22587
#        35480
#        46905
#        56052
#        65375
#        77850
#        89167
#        101317
#
# Disc length: 1492 seconds
#
# Revision: 0
# Processed by: cddbd v1.5.2PL0 Copyright (c) Steve Scherf et al.
# Submitted via: ExactAudioCopy v1.1
#
DISCID=7705d20a
DTITLE=Reno and Smiley - Reno and Smiley_Love Please Come Home
DYEAR=1998
DGENRE=Bluegrass
TTITLE0=Love Please Come Home
TTITLE1=Wall Around Your Heart
TTITLE2=Lonesome Wind Blues
TTITLE3=Unwanted Love
TTITLE4=Another Day
TTITLE5=(I'm Just A ) Used To Be To You
TTITLE6=Ain'T Nobody Gonna Miss Me
TTITLE7=I'm Blue and Lonesome
TTITLE8=Greenback Dollar
TTITLE9=I'm Gone, Long Gone
EXTD=
EXTT0=
EXTT1=
EXTT2=
EXTT3=
EXTT4=
EXTT5=
EXTT6=
EXTT7=
EXTT8=
EXTT9=
PLAYORDER=
